<svg width="266" height="265" viewBox="0 0 266 265" fill="none" xmlns="http://www.w3.org/2000/svg">
<g clip-path="url(#clip0_1_143)">
<path d="M133 108.566V156.999M144 118.281L133 106.999L122 118.281H144Z" stroke="#242F65" stroke-width="1.5" stroke-linecap="round" stroke-linejoin="round"/>
</g>
<path d="M164.644 12.7094L164.095 15.4364L159.361 14.4719L156.421 28.8708L152.979 28.1608L155.919 13.7621L151.216 12.7993L151.765 10.0723L164.644 12.7094Z" fill="#242F65"/>
<path d="M188.324 21.435L181.533 37.5487L178.28 36.1986L181.23 29.202L174.331 26.295L171.351 33.2591L168.129 31.9107L174.92 15.7969L178.142 17.1454L175.404 23.6579L182.302 26.5648L185.041 20.0523L188.324 21.435Z" fill="#242F65"/>
<path d="M199.783 44.9316L194.031 40.9089L190.996 43.0698L187.97 40.9576L203.221 30.5283L206.487 32.8082L201.781 50.6125L198.755 48.5001L199.783 44.9316ZM200.55 42.2161L202.688 34.7117L196.325 39.2658L200.55 42.2161Z" fill="#242F65"/>
<path d="M217.227 66.3315L214.846 63.7581L218.282 49.9741L209.528 58.0242L207.148 55.4509L220.018 43.625L222.398 46.1984L218.896 60.0718L227.717 51.9631L230.096 54.5365L217.227 66.3315Z" fill="#242F65"/>
<path d="M233.417 74.5026L229.574 85.4157L227.405 81.7697L230.963 72.1421L224.064 76.2342L222.267 73.2273L237.314 64.3047L239.112 67.3115L232.343 71.3176L242.421 72.8764L244.59 76.4914L233.417 74.5026Z" fill="#242F65"/>
<path d="M238.542 101.996C237.681 101.827 236.896 101.413 236.154 100.754C235.411 100.095 234.839 99.1669 234.437 97.9686C234.002 96.7996 233.843 95.7071 233.901 94.6263C233.958 93.5454 234.286 92.6339 234.826 91.8264C235.366 91.0191 236.146 90.3793 237.102 89.9347L238.376 93.4402C237.738 93.7469 237.277 94.2178 236.996 94.8531C236.713 95.4885 236.708 96.1694 236.979 96.9271C237.221 97.6213 237.602 98.0752 238.086 98.3177C238.57 98.5604 239.129 98.5592 239.698 98.3727C240.206 98.1829 240.594 97.894 240.803 97.4716C241.043 97.0507 241.159 96.5925 241.219 96.0691C241.246 95.5441 241.284 94.8339 241.237 93.9642C241.205 92.8167 241.256 91.8593 241.359 91.0906C241.462 90.3219 241.75 89.5939 242.221 88.9067C242.692 88.2196 243.434 87.7016 244.48 87.3237C245.906 86.8113 247.204 86.9424 248.378 87.6553C249.552 88.3682 250.45 89.5929 251.075 91.2676C251.698 93.004 251.772 94.5254 251.328 95.8644C250.885 97.2033 249.962 98.1763 248.592 98.8155L247.32 95.2792C247.865 94.9676 248.291 94.5567 248.506 94.0107C248.753 93.4664 248.723 92.8455 248.48 92.1513C248.264 91.5513 247.915 91.0992 247.462 90.8583C247.01 90.5864 246.482 90.5892 245.88 90.805C245.405 90.9654 245.048 91.2561 244.839 91.6786C244.632 92.0701 244.484 92.5267 244.455 93.0518C244.428 93.5767 244.392 94.2561 244.44 95.0949C244.44 96.2717 244.418 97.2615 244.314 98.0612C244.241 98.8315 243.952 99.5904 243.45 100.276C242.979 100.963 242.204 101.51 241.127 101.886C240.246 102.087 239.404 102.166 238.542 101.996Z" fill="#242F65"/>
<path d="M258.415 132.074L255.64 132.236L255.223 124.905L250.546 125.183L250.887 131.054L248.207 131.22L247.865 125.349L240.509 125.794L240.29 122.313L257.776 121.294L258.415 132.074Z" fill="#242F65"/>
<path d="M255.409 155.883C254.445 157.07 253.249 157.936 251.761 158.476C250.271 159.016 248.71 159.15 247.014 158.905C245.319 158.628 243.861 158.024 242.606 157.06C241.353 156.095 240.486 154.871 239.94 153.449C239.395 152.026 239.257 150.501 239.5 148.872C239.771 147.277 240.374 145.853 241.339 144.666C242.303 143.479 243.53 142.615 244.989 142.073C246.477 141.533 248.038 141.399 249.764 141.677C251.457 141.954 252.917 142.558 254.17 143.523C255.394 144.486 256.293 145.679 256.837 147.133C257.383 148.555 257.519 150.08 257.278 151.709C257.035 153.337 256.342 154.695 255.409 155.883ZM253.755 148.424C253.425 147.602 252.841 146.889 252.064 146.321C251.287 145.753 250.311 145.392 249.172 145.208C248.031 145.023 247.002 145.092 246.055 145.382C245.139 145.674 244.367 146.159 243.801 146.872C243.237 147.555 242.848 148.432 242.702 149.415C242.557 150.399 242.632 151.331 242.959 152.185C243.286 153.038 243.871 153.72 244.65 154.288C245.427 154.856 246.403 155.218 247.542 155.403C248.681 155.587 249.712 155.518 250.659 155.227C251.575 154.936 252.348 154.419 252.913 153.737C253.477 153.055 253.867 152.177 254.012 151.195C254.19 150.182 254.114 149.249 253.755 148.424Z" fill="#242F65"/>
<path d="M233.015 173.829L240.83 172.357L241.372 170.93L234.973 168.576L236.172 165.296L252.599 171.343L250.277 177.599C249.555 179.511 248.554 180.789 247.278 181.434C245.97 182.077 244.568 182.126 243.044 181.579C241.794 181.11 240.901 180.381 240.302 179.389C239.701 178.398 239.518 177.181 239.715 175.797L231.641 177.473L233.015 173.829ZM243.627 171.762L242.645 174.467C241.955 176.349 242.448 177.583 244.093 178.198C244.886 178.487 245.6 178.495 246.207 178.186C246.813 177.878 247.313 177.255 247.642 176.312L248.626 173.608L243.627 171.762Z" fill="#242F65"/>
<path d="M217.378 204.368C217.05 203.546 216.972 202.674 217.148 201.694C217.325 200.712 217.78 199.745 218.548 198.733C219.284 197.75 220.133 196.99 221.06 196.482C221.988 195.974 222.934 195.714 223.929 195.705C224.922 195.727 225.839 196.025 226.742 196.568L224.504 199.514C223.871 199.14 223.256 199.015 222.567 199.132C221.908 199.253 221.328 199.624 220.829 200.248C220.395 200.813 220.209 201.391 220.274 201.921C220.339 202.451 220.624 202.932 221.133 203.299C221.551 203.63 222.009 203.778 222.507 203.743C222.976 203.707 223.449 203.577 223.897 203.323C224.346 203.068 224.956 202.698 225.696 202.211C226.632 201.548 227.466 201.066 228.167 200.731C228.869 200.397 229.653 200.253 230.491 200.267C231.329 200.28 232.18 200.636 233.047 201.301C234.242 202.201 234.864 203.349 234.914 204.745C234.964 206.141 234.424 207.538 233.356 208.936C232.253 210.394 230.992 211.318 229.607 211.648C228.223 211.977 226.898 211.751 225.634 210.971L227.908 207.964C228.481 208.273 229.035 208.365 229.631 208.273C230.226 208.181 230.741 207.837 231.177 207.24C231.577 206.735 231.76 206.218 231.726 205.691C231.691 205.162 231.436 204.715 230.897 204.315C230.479 204.014 230.051 203.867 229.614 203.906C229.147 203.942 228.704 204.073 228.255 204.329C227.808 204.584 227.23 204.924 226.52 205.413C225.523 206.073 224.688 206.554 223.985 206.92C223.284 207.253 222.498 207.429 221.66 207.414C220.822 207.401 219.939 207.044 219.043 206.378C218.23 205.87 217.707 205.192 217.378 204.368Z" fill="#242F65"/>
<path d="M210.322 230.161C208.514 230.251 206.772 229.723 205.153 228.584L207.922 226.193C208.831 226.643 209.784 226.819 210.723 226.714C211.691 226.611 212.585 226.163 213.431 225.433C214.116 224.82 214.62 224.103 214.85 223.279C215.081 222.455 215.098 221.558 214.866 220.647C214.604 219.735 214.092 218.842 213.331 217.965C212.568 217.119 211.763 216.488 210.882 216.099C210.001 215.712 209.137 215.604 208.26 215.743C207.383 215.882 206.617 216.245 205.902 216.857C205.055 217.585 204.514 218.423 204.276 219.371C204.04 220.318 204.083 221.25 204.405 222.227L201.634 224.649C200.702 222.897 200.424 221.117 200.766 219.339C201.11 217.561 202.098 215.941 203.757 214.512C205.029 213.404 206.369 212.731 207.843 212.47C209.317 212.207 210.739 212.345 212.172 212.885C213.602 213.457 214.889 214.362 216.001 215.66C217.144 216.959 217.909 218.363 218.265 219.838C218.622 221.312 218.575 222.766 218.098 224.165C217.619 225.564 216.776 226.819 215.504 227.928C213.878 229.297 212.128 230.072 210.322 230.161Z" fill="#242F65"/>
<path d="M182.921 228.887L189.827 232.848L191.172 232.083L187.821 226.143L190.863 224.448L199.438 239.677L193.609 242.928C191.848 243.918 190.246 244.235 188.834 243.913C187.422 243.589 186.321 242.694 185.525 241.29C184.871 240.14 184.653 238.982 184.869 237.848C185.084 236.714 185.699 235.663 186.775 234.729L179.527 230.781L182.921 228.887ZM192.365 234.191L189.866 235.606C188.137 236.567 187.665 237.842 188.547 239.375C188.974 240.111 189.509 240.573 190.154 240.731C190.797 240.889 191.581 240.744 192.479 240.235L195.009 238.822L192.365 234.191Z" fill="#242F65"/>
<path d="M165.396 253.441C163.891 253.113 162.593 252.394 161.437 251.341C160.281 250.289 159.485 248.914 158.981 247.278C158.478 245.641 158.376 244.055 158.706 242.524C159.036 240.994 159.727 239.668 160.782 238.547C161.836 237.426 163.151 236.629 164.699 236.154C166.279 235.681 167.804 235.607 169.31 235.936C170.815 236.263 172.112 236.983 173.267 238.066C174.421 239.15 175.22 240.493 175.753 242.163C176.285 243.833 176.358 245.385 176.028 246.915C175.699 248.447 175.006 249.773 173.952 250.893C172.899 252.014 171.613 252.813 170.035 253.285C168.426 253.727 166.9 253.8 165.396 253.441ZM171.427 248.714C172.023 248.034 172.408 247.218 172.582 246.268C172.757 245.317 172.657 244.29 172.311 243.187C171.966 242.085 171.455 241.19 170.777 240.473C170.1 239.786 169.317 239.312 168.457 239.111C167.567 238.908 166.664 238.953 165.686 239.242C164.707 239.53 163.904 240.015 163.308 240.694C162.713 241.375 162.327 242.191 162.154 243.141C161.978 244.092 162.08 245.12 162.425 246.221C162.77 247.324 163.281 248.219 163.959 248.936C164.636 249.622 165.418 250.098 166.31 250.3C167.2 250.502 168.103 250.458 169.112 250.17C170.031 249.848 170.802 249.362 171.427 248.714Z" fill="#242F65"/>
<path d="M145.192 243.075L139.349 243.661L139.087 241.015L148.428 240.058L150.238 257.435L146.77 257.807L145.192 243.075Z" fill="#242F65"/>
<path d="M127.733 243.568L121.846 243.255L121.987 240.599L131.343 241.129L130.385 258.574L126.884 258.389L127.733 243.568Z" fill="#242F65"/>
<path d="M107.657 255.908L110.961 238.772L114.406 239.421L111.101 256.587L107.657 255.908Z" fill="#242F65"/>
<path d="M88.4682 231.69L91.7587 232.919L94.9682 246.779L99.1029 235.633L102.393 236.862L96.3033 253.229L93.0111 252.032L89.8376 238.082L85.6669 249.318L82.3765 248.089L88.4682 231.69Z" fill="#242F65"/>
<path d="M60.752 234.023C60.1557 232.381 60.1823 230.711 60.832 229.01L63.8956 231C63.7567 231.86 63.869 232.672 64.229 233.496C64.5908 234.29 65.207 234.973 66.0777 235.546C66.919 236.086 67.8043 236.381 68.7029 236.429C69.6015 236.477 70.4838 236.245 71.3174 235.763C72.1508 235.281 72.8735 234.545 73.5148 233.588C74.5279 232.063 74.8856 230.595 74.6186 229.188C74.3517 227.78 73.5122 226.62 72.0693 225.707C71.0176 225.031 69.9137 224.756 68.7574 224.881C67.6011 225.004 66.5458 225.568 65.5947 226.508L70.5496 229.746L69.1644 231.84L61.7459 227.015L63.6044 224.204C64.456 223.382 65.4216 222.752 66.5632 222.316C67.7049 221.883 68.9232 221.762 70.2213 221.893C71.5194 222.024 72.7977 222.526 74.0596 223.336C75.5009 224.279 76.559 225.42 77.2646 226.758C77.9703 228.096 78.2357 229.535 78.0932 231.045C77.9509 232.555 77.4056 234.044 76.4593 235.479C75.5113 236.946 74.3661 238.031 73.0221 238.765C71.6781 239.499 70.2624 239.826 68.7442 239.745C67.2259 239.664 65.7617 239.152 64.3204 238.209C62.548 237.062 61.3483 235.665 60.752 234.023Z" fill="#242F65"/>
<path d="M44.942 223.395L53.792 214.73L55.952 216.766L47.7525 226.053L44.942 223.395ZM55.0108 212.844L57.5134 210.19L60.2342 212.782L57.7333 215.405L55.0108 212.844Z" fill="#242F65"/>
<path d="M29.9411 202.218C29.9711 200.485 30.5831 198.907 31.774 197.547L33.9469 200.511C33.503 201.262 33.3347 202.09 33.3818 202.959C33.4598 203.83 33.7873 204.684 34.3952 205.522C35.005 206.328 35.719 206.923 36.5392 207.277C37.3593 207.63 38.2546 207.74 39.1956 207.573C40.1367 207.407 41.0908 206.993 42.0288 206.3C43.5164 205.202 44.3583 203.977 44.6198 202.566C44.8501 201.154 44.4869 199.803 43.4731 198.417C42.7183 197.417 41.7907 196.748 40.6557 196.471C39.5207 196.193 38.3335 196.317 37.1217 196.903L40.6278 201.673L38.5921 203.143L33.3467 196.019L36.0626 194.028C37.144 193.559 38.2759 193.31 39.5185 193.314C40.7302 193.316 41.9255 193.628 43.075 194.215C44.2245 194.803 45.263 195.726 46.1627 196.92C47.1766 198.306 47.7844 199.731 47.9519 201.257C48.121 202.753 47.8888 204.197 47.2246 205.585C46.5605 206.974 45.5343 208.159 44.1445 209.168C42.7548 210.179 41.2916 210.813 39.757 211.041C38.255 211.24 36.8036 211.07 35.4063 210.468C34.009 209.867 32.8188 208.874 31.8049 207.49C30.5644 205.689 29.9405 203.984 29.9411 202.218Z" fill="#242F65"/>
<path d="M22.5249 186.245L26.6352 184.328L24.0132 178.707L26.4352 177.566L29.0573 183.187L33.3258 181.215L30.3973 174.928L32.9451 173.763L37.3532 183.195L21.4569 190.555L17.0505 181.092L19.5672 179.925L22.5249 186.245Z" fill="#242F65"/>
<path d="M10.2592 159.206L12.9388 158.482L14.1831 163.132L28.4278 159.368L29.3366 162.732L15.092 166.493L16.3363 171.144L13.6566 171.868L10.2592 159.206Z" fill="#242F65"/>
<path d="M7.78284 132.72L25.3122 132.632L25.3437 136.133L7.81425 136.221L7.78284 132.72Z" fill="#242F65"/>
<path d="M27.8563 109.324L27.3007 112.762L14.3126 118.605L26.0815 120.502L25.5257 123.941L8.211 121.16L8.76665 117.721L21.8475 111.883L9.98588 109.982L10.5415 106.543L27.8563 109.324Z" fill="#242F65"/>
<path d="M23.7674 72.2529L26.2507 73.4691L24.095 77.7829L37.2957 84.3082L35.7307 87.4456L22.5299 80.9203L20.3759 85.2031L17.8926 83.9869L23.7674 72.2529Z" fill="#242F65"/>
<path d="M37.9978 53.5629C39.4265 52.9887 40.896 52.8192 42.468 53.0579C44.009 53.2948 45.465 53.9608 46.8068 55.0233C48.1486 56.0857 49.138 57.3462 49.7442 58.803C50.3503 60.2599 50.5211 61.7245 50.315 63.262C50.0798 64.767 49.4774 66.1595 48.4447 67.4671C47.4447 68.7455 46.2147 69.671 44.786 70.2452C43.3571 70.8195 41.8877 70.9889 40.3158 70.7504C38.7748 70.5134 37.3186 69.8474 35.946 68.7833C34.6041 67.7208 33.6146 66.4604 33.0379 65.036C32.4318 63.5791 32.261 62.1145 32.4654 60.6079C32.7008 59.103 33.3046 57.6795 34.3357 56.4028C35.3701 55.0643 36.6001 54.1389 37.9978 53.5629ZM35.7757 60.8772C35.6662 61.7695 35.8045 62.6749 36.2249 63.5334C36.6438 64.4228 37.2861 65.2003 38.2105 65.9309C39.1365 66.6305 40.043 67.1125 40.997 67.2872C41.9493 67.4927 42.8544 67.4171 43.7107 67.091C44.5669 66.765 45.2798 66.2146 45.9128 65.4122C46.5459 64.6098 46.9327 63.7632 47.0422 62.8709C47.1518 61.9786 47.0118 61.1041 46.5931 60.2147C46.1742 59.3252 45.5319 58.5478 44.6076 57.8172C43.6832 57.0866 42.7749 56.6356 41.8211 56.4609C40.8686 56.2554 39.9636 56.331 39.1073 56.657C38.2511 56.983 37.5072 57.5318 36.8742 58.3342C36.2722 59.1383 35.8854 59.9849 35.7757 60.8772Z" fill="#242F65"/>
<path d="M51.0345 39.2065L57.5419 47.1405C58.4173 48.2092 59.2862 48.8129 60.2109 48.9551C61.1045 49.0956 62.0211 48.8038 62.8971 48.1071C63.7731 47.4106 64.2202 46.5982 64.2694 45.6717C64.286 44.7746 63.8738 43.7617 63.0278 42.7256L56.5204 34.7915L59.2151 32.6123L65.7225 40.5465C66.7431 41.8086 67.3916 43.051 67.6049 44.301C67.849 45.5527 67.7247 46.723 67.2318 47.8116C66.7389 48.9002 65.9722 49.8813 64.933 50.7241C63.3083 52.0621 61.6007 52.6215 59.8395 52.4348C58.0783 52.248 56.4234 51.2309 54.8765 49.3523L48.3691 41.4182L51.0345 39.2065Z" fill="#242F65"/>
<path d="M81.913 21.2168C83.6969 21.5595 85.2621 22.5101 86.5499 24.0032L83.2617 25.6553C82.489 24.9947 81.6394 24.6088 80.6529 24.4633C79.6956 24.3504 78.722 24.5463 77.701 25.0493C76.8707 25.4697 76.2491 26.0559 75.7743 26.8048C75.3306 27.5554 75.1297 28.4118 75.1424 29.3417C75.1535 30.3023 75.4435 31.2777 75.9779 32.3281C76.4832 33.346 77.1238 34.1544 77.9014 34.7223C78.6482 35.2886 79.4699 35.6111 80.3669 35.6898C81.2328 35.7669 82.0809 35.5953 82.9111 35.175C83.9011 34.6704 84.6516 33.998 85.1003 33.1548C85.58 32.3132 85.7532 31.3933 85.6524 30.3661L88.9407 28.714C89.3967 30.6583 89.2705 32.4479 88.4692 34.0775C87.6972 35.7397 86.3221 37.06 84.3746 38.0402C82.8739 38.7964 81.3964 39.1203 79.9092 39.041C78.4219 38.9618 77.0505 38.4552 75.8229 37.5846C74.5658 36.6815 73.573 35.4828 72.7842 33.9542C71.9971 32.3949 71.6112 30.8878 71.6312 29.3404C71.6498 27.8239 72.0352 26.4198 72.846 25.1932C73.6277 23.9342 74.7988 22.9437 76.2995 22.1874C78.2485 21.1764 80.0996 20.8414 81.913 21.2168Z" fill="#242F65"/>
<path d="M108.87 10.9463L113.253 27.872L109.851 28.7438L107.942 21.3954L100.665 23.2685L102.573 30.6169L99.1729 31.4576L94.7902 14.5319L98.1924 13.6603L99.9726 20.5062L107.217 18.6624L105.437 11.8163L108.87 10.9463Z" fill="#242F65"/>
<path d="M130.997 6.20996L133.431 11.8521L139.458 13.0404L134.832 17.0676L135.533 23.1748L130.261 20.0449L124.688 22.5971L126.032 16.5989L121.859 12.1028L127.978 11.5616L130.997 6.20996Z" fill="#F3764F"/>
<defs>
<clipPath id="clip0_1_143">
<rect width="24" height="52" fill="white" transform="translate(121 106)"/>
</clipPath>
</defs>
</svg>
